<mxfile host="app.diagrams.net" modified="2023-12-08T09:15:17.183Z" agent="Mozilla/5.0 (Windows NT 10.0; Win64; x64) AppleWebKit/537.36 (KHTML, like Gecko) Chrome/119.0.0.0 Safari/537.36" etag="B8S_BEvIiDgKLD9kdcKU" version="22.1.7" type="device">
  <diagram name="Page-1" id="JkanCOTVR1aQbiXiffUx">
    <mxGraphModel dx="989" dy="556" grid="1" gridSize="10" guides="1" tooltips="1" connect="1" arrows="1" fold="1" page="1" pageScale="1" pageWidth="827" pageHeight="1169" math="0" shadow="0">
      <root>
        <mxCell id="0" />
        <mxCell id="1" parent="0" />
        <mxCell id="eKdSbpDFRuJAMHskkcLp-1" value=":Product" style="ellipse;whiteSpace=wrap;html=1;aspect=fixed;" vertex="1" parent="1">
          <mxGeometry x="360" y="360" width="80" height="80" as="geometry" />
        </mxCell>
        <mxCell id="eKdSbpDFRuJAMHskkcLp-2" value=":hasBrand" style="endArrow=classic;html=1;rounded=0;exitX=0.5;exitY=0;exitDx=0;exitDy=0;verticalAlign=bottom;" edge="1" parent="1" source="eKdSbpDFRuJAMHskkcLp-1" target="eKdSbpDFRuJAMHskkcLp-5">
          <mxGeometry width="50" height="50" relative="1" as="geometry">
            <mxPoint x="380" y="400" as="sourcePoint" />
            <mxPoint x="400" y="240" as="targetPoint" />
          </mxGeometry>
        </mxCell>
        <mxCell id="eKdSbpDFRuJAMHskkcLp-3" value=":hasIngredient" style="endArrow=classic;html=1;rounded=0;verticalAlign=bottom;" edge="1" parent="1" source="eKdSbpDFRuJAMHskkcLp-1" target="eKdSbpDFRuJAMHskkcLp-6">
          <mxGeometry width="50" height="50" relative="1" as="geometry">
            <mxPoint x="510" y="350" as="sourcePoint" />
            <mxPoint x="560" y="400" as="targetPoint" />
          </mxGeometry>
        </mxCell>
        <mxCell id="eKdSbpDFRuJAMHskkcLp-4" value=":fromCountry" style="endArrow=classic;html=1;rounded=0;verticalAlign=bottom;" edge="1" parent="1" source="eKdSbpDFRuJAMHskkcLp-1" target="eKdSbpDFRuJAMHskkcLp-7">
          <mxGeometry width="50" height="50" relative="1" as="geometry">
            <mxPoint x="380" y="400" as="sourcePoint" />
            <mxPoint x="240" y="400" as="targetPoint" />
            <mxPoint as="offset" />
          </mxGeometry>
        </mxCell>
        <mxCell id="eKdSbpDFRuJAMHskkcLp-5" value=":Brand" style="ellipse;whiteSpace=wrap;html=1;aspect=fixed;" vertex="1" parent="1">
          <mxGeometry x="360" y="160" width="80" height="80" as="geometry" />
        </mxCell>
        <mxCell id="eKdSbpDFRuJAMHskkcLp-6" value=":Ingredient" style="ellipse;whiteSpace=wrap;html=1;aspect=fixed;" vertex="1" parent="1">
          <mxGeometry x="559.9999999999998" y="360.0000000000001" width="80" height="80" as="geometry" />
        </mxCell>
        <mxCell id="eKdSbpDFRuJAMHskkcLp-7" value=":Country" style="ellipse;whiteSpace=wrap;html=1;aspect=fixed;" vertex="1" parent="1">
          <mxGeometry x="160" y="360" width="80" height="80" as="geometry" />
        </mxCell>
        <mxCell id="eKdSbpDFRuJAMHskkcLp-8" value="rdfs:subClassOf" style="endArrow=classic;html=1;rounded=0;verticalAlign=bottom;" edge="1" parent="1" source="eKdSbpDFRuJAMHskkcLp-9" target="eKdSbpDFRuJAMHskkcLp-6">
          <mxGeometry width="50" height="50" relative="1" as="geometry">
            <mxPoint x="600" y="520" as="sourcePoint" />
            <mxPoint x="380" y="400" as="targetPoint" />
          </mxGeometry>
        </mxCell>
        <mxCell id="eKdSbpDFRuJAMHskkcLp-9" value=":Additive" style="ellipse;whiteSpace=wrap;html=1;aspect=fixed;" vertex="1" parent="1">
          <mxGeometry x="479.9999999999998" y="520" width="80" height="80" as="geometry" />
        </mxCell>
        <mxCell id="eKdSbpDFRuJAMHskkcLp-10" value="rdfs:subClassOf" style="endArrow=classic;html=1;rounded=0;" edge="1" parent="1" source="eKdSbpDFRuJAMHskkcLp-11" target="eKdSbpDFRuJAMHskkcLp-6">
          <mxGeometry width="50" height="50" relative="1" as="geometry">
            <mxPoint x="640" y="520" as="sourcePoint" />
            <mxPoint x="380" y="470" as="targetPoint" />
          </mxGeometry>
        </mxCell>
        <mxCell id="eKdSbpDFRuJAMHskkcLp-11" value=":Vitamin" style="ellipse;whiteSpace=wrap;html=1;aspect=fixed;" vertex="1" parent="1">
          <mxGeometry x="639.9999999999998" y="520" width="80" height="80" as="geometry" />
        </mxCell>
        <mxCell id="eKdSbpDFRuJAMHskkcLp-12" value=":hasPackaging" style="endArrow=classic;html=1;rounded=0;verticalAlign=bottom;" edge="1" parent="1" source="eKdSbpDFRuJAMHskkcLp-1" target="eKdSbpDFRuJAMHskkcLp-15">
          <mxGeometry width="50" height="50" relative="1" as="geometry">
            <mxPoint x="380" y="400" as="sourcePoint" />
            <mxPoint x="510" y="290" as="targetPoint" />
          </mxGeometry>
        </mxCell>
        <mxCell id="eKdSbpDFRuJAMHskkcLp-13" value=":belongsToGroup" style="endArrow=classic;html=1;rounded=0;labelPosition=center;verticalLabelPosition=middle;align=center;verticalAlign=bottom;" edge="1" parent="1" source="eKdSbpDFRuJAMHskkcLp-1" target="eKdSbpDFRuJAMHskkcLp-14">
          <mxGeometry width="50" height="50" relative="1" as="geometry">
            <mxPoint x="380" y="400" as="sourcePoint" />
            <mxPoint x="290" y="290" as="targetPoint" />
            <Array as="points">
              <mxPoint x="320" y="320" />
            </Array>
          </mxGeometry>
        </mxCell>
        <mxCell id="eKdSbpDFRuJAMHskkcLp-14" value=":FoodGroup" style="ellipse;whiteSpace=wrap;html=1;aspect=fixed;" vertex="1" parent="1">
          <mxGeometry x="210" y="210.0000000000001" width="80" height="80" as="geometry" />
        </mxCell>
        <mxCell id="eKdSbpDFRuJAMHskkcLp-15" value=":Packaging" style="ellipse;whiteSpace=wrap;html=1;aspect=fixed;" vertex="1" parent="1">
          <mxGeometry x="509.9999999999998" y="210.0000000000001" width="80" height="80" as="geometry" />
        </mxCell>
        <mxCell id="eKdSbpDFRuJAMHskkcLp-17" value="&lt;font size=&quot;1&quot;&gt;//Work in progress&lt;br&gt;//Cerchiamo di importare un&#39;ontologia dei paesi appena finiamo le cose piÃ¹ importanti, per ora si possono usare degli URI placeholder&lt;br&gt;&lt;/font&gt;" style="text;html=1;strokeColor=none;fillColor=none;align=left;verticalAlign=top;whiteSpace=wrap;rounded=0;" vertex="1" parent="1">
          <mxGeometry x="80" y="410" width="110" height="130" as="geometry" />
        </mxCell>
        <mxCell id="eKdSbpDFRuJAMHskkcLp-18" value="name: string&lt;br&gt;" style="text;html=1;strokeColor=none;fillColor=none;align=center;verticalAlign=top;whiteSpace=wrap;rounded=0;fontSize=10;" vertex="1" parent="1">
          <mxGeometry x="140" y="200" width="80" height="30" as="geometry" />
        </mxCell>
        <mxCell id="eKdSbpDFRuJAMHskkcLp-19" value="name: string&lt;br&gt;owner: string" style="text;html=1;strokeColor=none;fillColor=none;align=left;verticalAlign=middle;whiteSpace=wrap;rounded=0;fontSize=10;" vertex="1" parent="1">
          <mxGeometry x="310" y="130" width="80" height="30" as="geometry" />
        </mxCell>
        <mxCell id="eKdSbpDFRuJAMHskkcLp-20" value="name: string" style="text;html=1;strokeColor=none;fillColor=none;align=left;verticalAlign=top;whiteSpace=wrap;rounded=0;fontSize=10;" vertex="1" parent="1">
          <mxGeometry x="590" y="200" width="60" height="30" as="geometry" />
        </mxCell>
        <mxCell id="eKdSbpDFRuJAMHskkcLp-21" value="name:&amp;nbsp;" style="text;html=1;strokeColor=none;fillColor=none;align=left;verticalAlign=top;whiteSpace=wrap;rounded=0;fontSize=10;" vertex="1" parent="1">
          <mxGeometry x="640" y="360" width="60" height="30" as="geometry" />
        </mxCell>
        <mxCell id="eKdSbpDFRuJAMHskkcLp-22" value="name: string&lt;br&gt;servingSize: string&lt;br&gt;nutriscoreScore: //boh&lt;br&gt;nutriscoreGrade: //boh&lt;br&gt;novaGroup: //boh&lt;br&gt;ecoscoreGrade: //boh&lt;br&gt;energyKJ: float&lt;br&gt;energyKcal: float&lt;br&gt;fat: float&lt;br&gt;fatSaturated: float&lt;br&gt;fatTrans: float&lt;br&gt;cholesterol: float&lt;br&gt;carbohydrates: float&lt;br&gt;sugars: float&lt;br&gt;fiber: float&lt;br&gt;proteins: float&lt;br&gt;salt: float&lt;br&gt;sodium: float&lt;br&gt;vitaminA: float&lt;br&gt;vitaminC: float&lt;br&gt;calcium: float&lt;br&gt;irom: float" style="text;html=1;strokeColor=none;fillColor=none;align=left;verticalAlign=top;whiteSpace=wrap;rounded=0;fontSize=10;" vertex="1" parent="1">
          <mxGeometry x="320" y="430" width="160" height="340" as="geometry" />
        </mxCell>
      </root>
    </mxGraphModel>
  </diagram>
</mxfile>
